<svg xmlns="http://www.w3.org/2000/svg" width="14" height="12" fill="none"><path stroke="#ECECEC" d="M7.39 11.686c.06-.038 1.495-.955 2.947-2.284.875-.801 1.58-1.592 2.093-2.35.323-.48.578-.954.753-1.411.21-.547.317-1.086.317-1.602a3.923 3.923 0 0 0-.327-1.58 4.032 4.032 0 0 0-.889-1.284L7.39 11.686Zm0 0-.37.236m.37-.236-.37.236m5.695-9.264a3.531 3.531 0 0 0-.779-1.124 3.635 3.635 0 0 0-1.154-.757h-.001A3.674 3.674 0 0 0 9.373.5H9.37c-.68 0-1.341.185-1.916.532a3.573 3.573 0 0 0-.39.274l-.314.252-.314-.252A3.698 3.698 0 0 0 4.13.5c-.49 0-.963.093-1.41.277-.432.178-.82.432-1.154.757-.332.321-.596.703-.78 1.124h11.929Zm0 0c.19.439.286.902.285 1.38v.001c0 .447-.092.925-.284 1.422v.001a6.577 6.577 0 0 1-.7 1.31C11.53 7.489 10.853 8.25 10 9.034a23.19 23.19 0 0 1-2.878 2.23l-.37.236h-.004l-.37-.235-.007-.005-.002-.001-.017-.011a7.132 7.132 0 0 1-.244-.162A23.126 23.126 0 0 1 3.5 9.033c-.855-.782-1.531-1.543-2.016-2.26l11.23-4.115ZM7.02 11.922a.505.505 0 0 1-.54 0h.54ZM.5 4.04c0-.478.097-.943.287-1.38L.784 5.46A3.958 3.958 0 0 1 .5 4.039Zm.985 2.733a6.657 6.657 0 0 1-.701-1.311l.7 1.311Z"/></svg>